<svg width="32" height="32" viewBox="0 0 32 32" fill="none" xmlns="http://www.w3.org/2000/svg">
<g clip-path="url(#clip0_1050_329)">
<path d="M14.4241 0.192383H18.4207C18.6092 0.215942 18.7969 0.241125 18.9854 0.262247C21.8014 0.577446 24.3363 1.58722 26.5414 3.37768C29.3168 5.63525 31.0457 8.52648 31.6917 12.0522C31.7916 12.5956 31.8501 13.1464 31.9281 13.694V14.8443C31.6697 15.4942 31.1822 15.7013 30.4989 15.7005C21.1149 15.6875 11.731 15.6845 2.34748 15.6916C2.24674 15.6916 2.14518 15.6916 2.04443 15.6916C1.38795 15.6688 0.925652 15.2042 0.929714 14.5478C0.929 14.0735 0.952325 13.5996 0.999591 13.1277C1.30589 10.3226 2.31336 7.79616 4.09349 5.60032C6.35218 2.81309 9.25109 1.07705 12.787 0.428782C13.3273 0.328861 13.8757 0.27037 14.4241 0.192383ZM11.994 8.49804C11.994 8.29658 12.0054 8.09186 11.994 7.89445C11.9526 7.30224 11.5114 6.86681 10.9459 6.84569C10.3479 6.82375 9.86288 7.20881 9.80845 7.81565C9.76579 8.26632 9.76579 8.72001 9.80845 9.17068C9.83169 9.45011 9.96412 9.70912 10.177 9.89159C10.3899 10.0741 10.6662 10.1653 10.9459 10.1455C11.5325 10.1138 11.9672 9.67435 12.0021 9.06914C12.007 8.88067 11.994 8.68895 11.994 8.49804ZM20.85 8.49804C20.85 8.70926 20.8337 8.9221 20.85 9.13169C20.8705 9.40581 20.9932 9.66225 21.1937 9.85028C21.3943 10.0383 21.6581 10.1443 21.933 10.1472C22.2036 10.1592 22.4685 10.0669 22.6729 9.88923C22.8773 9.71159 23.0057 9.4622 23.0315 9.19262C23.0756 8.73333 23.0756 8.27088 23.0315 7.81159C22.9738 7.20638 22.4855 6.82213 21.8875 6.84569C21.3188 6.86843 20.8833 7.30549 20.8427 7.90176C20.8411 8.09836 20.8524 8.30064 20.8524 8.50129L20.85 8.49804ZM17.5115 8.51348C17.5115 8.26977 17.5302 8.02606 17.5115 7.78966C17.4802 7.52752 17.3537 7.28602 17.156 7.11108C16.9582 6.93613 16.7031 6.83995 16.4391 6.84081C15.8744 6.83594 15.3772 7.247 15.3406 7.7921C15.3113 8.25414 15.3113 8.71758 15.3406 9.17962C15.3739 9.72716 15.8695 10.148 16.4277 10.1472C16.6969 10.1491 16.9573 10.0509 17.1582 9.87163C17.3591 9.69238 17.4862 9.44488 17.5148 9.17718C17.5318 8.96028 17.514 8.73769 17.514 8.51429L17.5115 8.51348Z" fill="#60340B"/>
<path d="M31.9235 23.1996V26.224C31.8284 26.6132 31.761 27.0129 31.6326 27.3898C30.8201 29.7416 28.7759 31.1868 26.2597 31.1884C19.7008 31.1884 13.1415 31.1884 6.58153 31.1884C6.43041 31.1884 6.27848 31.1884 6.12736 31.1771C3.64525 31.0479 1.44263 29.1648 1.05101 26.7139C0.888518 25.6976 0.944579 24.6448 0.924268 23.6074C0.908018 22.765 1.34269 22.3385 2.1836 22.3385C7.23883 22.3385 12.2946 22.3371 17.3509 22.3344C17.7158 22.3292 18.0714 22.4493 18.3584 22.6748C19.4203 23.4782 20.4871 24.2744 21.553 25.0729C21.6879 25.1737 21.8252 25.2719 21.9593 25.3727C23.1707 24.4645 24.3674 23.5717 25.5577 22.6716C25.8451 22.4461 26.2016 22.3269 26.5668 22.3344C27.8887 22.3434 29.2106 22.3572 30.5325 22.3296C31.2158 22.3174 31.6846 22.5521 31.9235 23.1996Z" fill="#60340B"/>
<path d="M31.9239 19.2645C31.6737 19.9217 31.1854 20.1264 30.5013 20.1256C21.0766 20.1132 11.6519 20.1105 2.22714 20.1175C1.52516 20.1175 1.10836 19.8389 0.961299 19.2767C0.923373 19.1274 0.917512 18.9718 0.944102 18.8201C0.970692 18.6684 1.02913 18.524 1.11557 18.3965C1.202 18.2691 1.31447 18.1613 1.44557 18.0805C1.57667 17.9996 1.72342 17.9474 1.87615 17.9274C2.01676 17.9129 2.15812 17.9069 2.29945 17.9095C11.7155 17.9095 21.131 17.9068 30.546 17.9014C31.2252 17.9014 31.6932 18.1296 31.9272 18.7795L31.9239 19.2645Z" fill="#60340B"/>
</g>
<defs>
<clipPath id="clip0_1050_329">
<rect width="31" height="31" fill="white" transform="translate(0.923828 0.192383)"/>
</clipPath>
</defs>
</svg>
