<svg width="29" height="32" viewBox="0 0 29 32" fill="none" xmlns="http://www.w3.org/2000/svg">
<g clip-path="url(#clip0_1050_338)">
<path d="M15.2864 0.192216C15.9446 0.291566 16.6158 0.338586 17.2595 0.495573C22.9551 1.90163 26.4745 5.46986 27.8366 11.1502C27.9311 11.5838 27.9972 12.0231 28.0344 12.4653C28.0801 12.896 28.09 13.3298 28.1196 13.8357C27.988 13.7393 27.8499 13.6519 27.7065 13.574C27.3016 13.3935 26.8968 13.21 26.4806 13.0629C26.3018 12.9999 26.2257 12.9347 26.2074 12.7398C26.028 10.6797 25.2986 8.70507 24.095 7.02077C22.7401 5.08844 20.8301 3.61 18.6163 2.77985C16.9091 2.12364 15.0698 1.88137 13.2501 2.07303C10.9478 2.29232 8.7642 3.19385 6.98074 4.66142C5.06609 6.19791 3.68694 8.29753 3.03983 10.661C2.84655 11.3436 2.78035 12.0663 2.64566 12.7686C2.62816 12.8604 2.56957 12.9863 2.49348 13.0181C1.92429 13.2631 1.34674 13.4883 0.719727 13.7409C0.795821 13.0159 0.819407 12.2506 0.963985 11.5082C1.89005 6.74093 4.5853 3.3403 9.00864 1.31539C10.3672 0.703556 11.825 0.339823 13.3125 0.241511C13.402 0.229522 13.4907 0.212303 13.5781 0.189941L15.2864 0.192216Z" fill="#60340B"/>
<path d="M17.002 27.55C18.0445 27.55 19.0787 27.5887 20.1082 27.5394C21.2336 27.4855 22.2084 26.6702 22.4527 25.7192C21.9961 25.698 21.5121 25.7488 21.067 25.6434C19.813 25.34 19.0124 24.3207 18.9995 23.0254C18.9774 20.5629 18.9645 18.1004 18.9995 15.6387C19.0322 13.4644 21.2823 12.2259 23.1504 13.3286C24.0194 13.8413 24.444 14.6535 24.4516 15.6485C24.4653 18.7579 24.4821 21.8673 24.4456 24.9768C24.4174 27.3718 22.4352 29.317 20.0321 29.3754C19.1007 29.3982 18.1693 29.386 17.2379 29.3754C17.0591 29.3754 16.9762 29.4331 16.9008 29.5931C16.3476 30.7822 15.1065 31.4018 13.848 31.1296C12.6343 30.8672 11.7478 29.7895 11.7036 28.5238C11.661 27.2823 12.546 26.1447 13.8046 25.8239C14.9939 25.5205 16.3157 26.1386 16.862 27.2519C16.9107 27.3528 16.9556 27.4514 17.002 27.55Z" fill="#60340B"/>
<path d="M9.87798 19.3577C9.87798 20.5484 9.88407 21.7391 9.87798 22.929C9.87037 24.1667 9.14291 25.2224 8.07303 25.572C6.23536 26.1711 4.45248 24.9607 4.42052 23.0336C4.38196 20.5628 4.38196 18.0912 4.42052 15.6188C4.45856 13.459 6.69497 12.2319 8.55851 13.3217C9.4625 13.8526 9.86733 14.6944 9.87493 15.7258C9.88483 16.9369 9.87798 18.1473 9.87798 19.3577Z" fill="#60340B"/>
<path d="M2.62061 14.915V23.7548C1.89924 23.5122 1.35288 23.0556 1.05459 22.3655C0.888626 21.9777 0.796013 21.5627 0.781418 21.1414C0.746414 19.9326 0.762393 18.7214 0.770763 17.5118C0.77609 16.2801 1.53246 15.2184 2.62061 14.915Z" fill="#60340B"/>
<path d="M26.2549 23.7397V14.8999C26.8104 15.0776 27.29 15.436 27.617 15.9177C27.9406 16.3742 28.1113 16.921 28.1047 17.48C28.1047 18.7101 28.1146 19.9402 28.1047 21.1703C28.0918 22.386 27.3347 23.4273 26.2549 23.7397Z" fill="#60340B"/>
</g>
<defs>
<clipPath id="clip0_1050_338">
<rect width="27.3953" height="31" fill="white" transform="translate(0.726562 0.192383)"/>
</clipPath>
</defs>
</svg>
