<svg width="32" height="32" viewBox="0 0 32 32" fill="none" xmlns="http://www.w3.org/2000/svg">
<g clip-path="url(#clip0_1050_349)">
<path d="M27.5839 22.5751C28.7629 22.5432 29.7672 22.9035 30.6079 23.6912C31.3713 24.4057 31.7886 25.3002 31.9167 26.3413C31.9591 26.6861 31.8081 26.8938 31.507 27.0049C31.7615 29.1673 30.8581 30.6781 29.0853 31.109C27.678 31.4537 25.6753 30.778 25.1256 28.4907C25.1078 28.4907 25.0815 28.4847 25.0731 28.4907C24.5751 29.0501 24.2163 28.9863 23.9483 28.2865C23.883 28.1141 23.8329 27.9417 23.7922 27.8176C23.4741 27.8521 23.1704 27.9133 22.8659 27.9142C20.2403 27.9216 17.6147 27.9216 14.9891 27.9142C14.7346 27.9142 14.6125 27.9392 14.565 28.2589C14.3275 29.8378 12.9321 30.9978 11.3416 30.9831C10.5727 30.9796 9.83018 30.6979 9.24712 30.1886C8.66406 29.6793 8.27861 28.9756 8.15987 28.2037C8.14715 28.1176 8.12764 28.0365 8.11407 27.9659C7.8596 27.9159 7.6136 27.8952 7.38627 27.8185C6.4286 27.497 5.89081 26.5602 5.97309 25.4123C6.03175 24.6284 6.22495 23.861 6.54396 23.1448C6.85866 22.4303 7.22256 21.7392 7.58307 21.0454C7.61176 20.9941 7.65128 20.9498 7.6988 20.9158C7.74632 20.8819 7.80065 20.859 7.8579 20.8489C10.356 20.8394 12.8549 20.842 15.353 20.8437C15.3737 20.847 15.3938 20.8537 15.4124 20.8635C15.2487 22.4088 15.4794 23.2767 16.208 23.7679C16.2369 23.3275 16.2666 22.9061 16.2929 22.4803C16.3946 20.7423 16.4964 19.0037 16.5982 17.2645C16.6288 16.7474 16.4795 16.5665 15.9671 16.5104C15.1995 16.4243 14.4318 16.3432 13.665 16.2519C13.4534 16.2308 13.2487 16.1645 13.0641 16.0572C12.8796 15.9499 12.7196 15.8042 12.5945 15.6296C12.4694 15.4549 12.3821 15.2554 12.3384 15.044C12.2947 14.8327 12.2955 14.6143 12.3409 14.4033C12.8131 12.0683 13.2918 9.73445 13.777 7.40177C13.9916 6.36757 14.85 5.75309 15.8492 5.87461C16.7501 5.9832 17.4236 6.80452 17.4456 7.79304C17.456 7.94661 17.5156 8.0925 17.6153 8.20844C18.5 9.20816 19.6638 9.73732 20.8742 10.1906C21.4478 10.4126 22.0591 10.5166 22.6725 10.4966C23.497 10.4664 24.3232 10.4863 25.1494 10.4906C26.1834 10.4966 26.7891 11.1094 26.795 12.1522C26.795 12.4745 26.8026 12.7977 26.7899 13.12C26.7781 13.5061 26.6214 13.873 26.3518 14.1454C26.0823 14.4179 25.7203 14.5752 25.3402 14.5851C25.0009 14.5963 24.6676 14.5851 24.2867 14.5851C24.5293 16.4079 24.9153 18.0919 26.4515 19.2528C27.4371 19.9983 27.8205 21.0195 27.6288 22.258C27.6119 22.3519 27.6008 22.4467 27.5839 22.5751ZM21.2059 13.0226C19.5672 12.8337 18.0124 12.1856 16.7153 11.1507C16.5906 11.6963 16.4701 12.1935 16.3633 12.6934C16.2784 13.1071 16.3734 13.2838 16.767 13.4354C17.4886 13.7124 18.2107 13.9873 18.9334 14.2602C19.847 14.6049 20.199 15.1272 20.1023 16.1054C19.8928 18.2332 19.6604 20.3585 19.439 22.4829C19.3762 23.0862 19.3169 23.6895 19.2558 24.3074H21.2067L21.2059 13.0226ZM28.3312 30.1334C29.9606 30.1403 31.06 28.4364 30.3966 26.9386C30.3635 26.8427 30.3032 26.7588 30.2234 26.6975C30.1436 26.6362 30.0478 26.6001 29.9479 26.5938C28.6917 26.4646 27.5075 26.68 26.4073 27.329C26.3082 27.3796 26.2258 27.4587 26.1704 27.5564C26.1151 27.6542 26.0892 27.7663 26.096 27.8788C26.1057 28.4764 26.3447 29.0464 26.7621 29.4676C27.1794 29.8887 27.7421 30.1276 28.3303 30.1334H28.3312ZM9.1854 27.9383C9.17437 29.0423 10.2729 30.0067 11.4697 29.955C12.586 29.9084 13.6277 28.9035 13.5437 27.9383H9.1854Z" fill="#60340B"/>
<path d="M6.01161 7.41868C7.15448 7.41868 8.29735 7.41868 9.44022 7.41868C10.4581 7.41868 11.0884 8.05902 11.0892 9.08545C11.0892 10.9022 11.0892 12.7189 11.0892 14.5357C11.0892 15.5457 10.4547 16.1921 9.46482 16.193C7.15759 16.193 4.85036 16.193 2.54313 16.193C1.57189 16.193 0.931462 15.5423 0.926373 14.5607C0.92298 12.7221 0.92298 10.8835 0.926373 9.04495C0.926373 8.0797 1.57189 7.42385 2.51938 7.41954C3.68318 7.41437 4.84697 7.41868 6.01161 7.41868Z" fill="#60340B"/>
<path d="M15.6422 19.8076H14.1697C12.0007 19.8076 9.83089 19.8076 7.66193 19.8128C7.56885 19.8205 7.47539 19.8036 7.39065 19.7638C7.30591 19.7239 7.2328 19.6624 7.17843 19.5852C6.78112 19.0766 6.55089 18.4541 6.52019 17.8056C6.49898 17.3626 6.6839 17.1592 7.11396 17.1592C9.75935 17.1592 12.405 17.1592 15.051 17.1592C15.4132 17.1592 15.6278 17.3203 15.6371 17.6496C15.6558 18.3528 15.6422 19.0604 15.6422 19.8076Z" fill="#60340B"/>
<path d="M14.6484 2.75957C14.6536 2.07445 14.9262 1.41942 15.4064 0.938359C15.8865 0.457298 16.535 0.189541 17.2093 0.1939C17.5435 0.196718 17.8738 0.266388 18.1815 0.39893C18.4892 0.531473 18.7682 0.724293 19.0025 0.966381C19.2369 1.20847 19.422 1.49508 19.5473 1.80986C19.6726 2.12463 19.7356 2.4614 19.7328 2.80093C19.7241 3.48081 19.4522 4.12983 18.9759 4.60746C18.4996 5.08509 17.8573 5.35287 17.1881 5.35281C16.8537 5.35213 16.5227 5.2845 16.2141 5.15378C15.9054 5.02306 15.6251 4.83181 15.3893 4.59097C15.1534 4.35013 14.9666 4.06442 14.8395 3.75018C14.7124 3.43593 14.6474 3.09931 14.6484 2.75957Z" fill="#60340B"/>
</g>
<defs>
<clipPath id="clip0_1050_349">
<rect width="31" height="31" fill="white" transform="translate(0.923828 0.192383)"/>
</clipPath>
</defs>
</svg>
